
        <svg xmlns="http://www.w3.org/2000/svg" xmlns:xlink="http://www.w3.org/1999/xlink" version="1.1" width="3181.8181818181824" height="1452.5001899759673" viewBox="0 0 3181.8181818181824 1452.5001899759673">
			
			<g transform="scale(9.090909090909092) translate(10, 10)">
				<defs id="SvgjsDefs39419"><linearGradient id="SvgjsLinearGradient39426"><stop id="SvgjsStop39427" stop-color="#2d388a" offset="0"/><stop id="SvgjsStop39428" stop-color="#00aeef" offset="1"/></linearGradient></defs><g id="SvgjsG39420" featureKey="mugSzh-0" transform="matrix(1.458885912120912,0,0,1.458885912120912,-17.944298388649646,-3.049911081887585)" fill="#fff"><g xmlns="http://www.w3.org/2000/svg"><path d="M31.5,27c-2,0.5-3.6,2.3-3.6,4.5c0,2.2,1.6,4.1,3.7,4.6c1.5,3.8,0.7,8.1-2.2,11L28,48.6v4.3c0,6.6,5.4,11.9,11.9,11.9h20.6   c6.6,0,11.9-5.4,11.9-11.9v-4.3L71,47.1c-2.9-2.9-3.8-7.3-2.2-11.1c2-0.6,3.4-2.4,3.4-4.5c0-2.6-2.1-4.7-4.7-4.7h-0.4   c0.1-0.8,0.1-1.4,0.1-1.9c0.4-0.3,0.6-0.8,0.8-1.3l0.8-3.2c0-0.2,0.1-0.3,0.1-0.5c1.8-0.9,3.9-2.8,3.8-6.4   c-0.1-4.8-2.9-9.1-5.3-10.2c-0.8-0.3-1.6-0.2-2.2,0.4c-0.6,0.6-0.7,1.5-0.4,2.2c0.1,0.3,0.2,0.9,0,1.4c-0.2,0.4-0.5,0.7-1,0.9   l-0.1,0c-2.8,1.3-4.6,3.2-5,5.5c-0.3,1.5,0.1,3,1.1,4.2c0,0.1-0.1,0.2-0.1,0.3l-0.8,3.2c-0.1,0.5-0.1,1,0.1,1.5   c-0.4,0.8-1,2.1-1.6,4h-1.2l-1.1-15.4L51.9,4c-0.5-1.3-1.8-2-3.2-1.9c-1.4,0.1-2.5,1-2.9,2.3l-2.2,7.8l0.6,8.5L38.4,4.3   c-0.6-1.6-2.4-2.5-4-1.9L27,5.1c-1.6,0.6-2.5,2.4-1.9,4L31.5,27z M68.9,49.2l0.6,0.6v3.1c0,4.9-4,8.9-8.9,8.9H39.9   c-4.9,0-8.9-4-8.9-8.9v-3.1l0.6-0.6c3.4-3.4,4.6-8.4,3.3-13h30.7C64.2,40.8,65.4,45.8,68.9,49.2z M69.3,31.5c0,0.9-0.8,1.7-1.7,1.7   H32.7c-0.9,0-1.7-0.8-1.7-1.7c0-0.9,0.8-1.7,1.7-1.7h1c0,0,0,0,0,0c0,0,0,0,0,0h33.9C68.5,29.8,69.3,30.6,69.3,31.5z M48.2,15.3   L49,26.8h-1.2l-0.9-12.1L48.2,15.3z M62,21.6l0.6-2.2l3.3,0.8l-0.6,2.2L62,21.6z M61.7,14.2c0.2-1.2,1.4-2.4,3.2-3.2   c1.2-0.4,2.2-1.3,2.7-2.5c0.1-0.2,0.2-0.5,0.2-0.7c1,1.4,1.8,3.6,1.9,5.9c0.1,2.9-1.9,3.7-2.6,3.9c0,0,0,0-0.1,0l-4.3-1.1   c-0.1,0-0.2,0-0.3,0C62,15.8,61.5,15.1,61.7,14.2z M61.5,24.6l2.7,0.7c0,0.4-0.1,0.9-0.1,1.5h-3.5C61,25.9,61.3,25.2,61.5,24.6z    M52,26.8l-0.8-11.7l1.2-0.7l0.9,12.5H52z M51.8,11.2l-2.3,1.4L47,11.5l1.2-4.1c0.3,0.2,0.6,0.2,1,0.2c0.3,0,0.7-0.2,0.9-0.3   L51.8,11.2z M28,7.9l7.4-2.7c0.1,0,0.2,0,0.2,0.1l7.8,21.5h-8.6l-0.9-2.5l2.9-1.1c0.8-0.3,1.2-1.1,0.9-1.9   c-0.3-0.8-1.1-1.2-1.9-0.9l-2.9,1.1l-1-2.7l1.1-0.4c0.8-0.3,1.2-1.1,0.9-1.9c-0.3-0.8-1.1-1.2-1.9-0.9L30.8,16l-1-2.7l2.9-1.1   c0.8-0.3,1.2-1.1,0.9-1.9c-0.3-0.8-1.1-1.2-1.9-0.9l-2.9,1.1l-0.9-2.4C27.9,8,27.9,8,28,7.9z"/><path d="M81.8,23.4H75c-0.8,0-1.5,0.7-1.5,1.5s0.7,1.5,1.5,1.5h6.8c1.6,0,2.9,1.3,2.9,2.9v1.9h-5.6c-0.8,0-1.5,0.7-1.5,1.5   c0,0.8,0.7,1.5,1.5,1.5h5.6v34.5H15.3V34.2h4.9c0.8,0,1.5-0.7,1.5-1.5c0-0.8-0.7-1.5-1.5-1.5h-4.9v-1.9c0-1.6,1.3-2.9,2.9-2.9h6.8   c0.8,0,1.5-0.7,1.5-1.5s-0.7-1.5-1.5-1.5h-6.8c-3.2,0-5.9,2.6-5.9,5.9V73c0,3.2,2.6,5.9,5.9,5.9h21.7v3.6c0,4.4-2.3,8.4-6.1,10.6   c-1,0.6-1.5,1.8-1.2,2.9c0.3,1.1,1.4,1.9,2.5,1.9h29.9c1.1,0,2.2-0.7,2.5-1.9c0.3-1.1-0.2-2.3-1.2-2.9C62.4,91,60,86.9,60,82.5   v-3.6h21.8c3.2,0,5.9-2.6,5.9-5.9V29.3C87.7,26.1,85.1,23.4,81.8,23.4z M63.3,94.8H36.9c3.8-2.9,6.1-7.5,6.1-12.4v-3.5h14.1v3.5   C57.1,87.3,59.4,91.9,63.3,94.8z M81.8,75.9H18.2c-1.6,0-2.9-1.3-2.9-2.9v-1.4h69.4V73C84.7,74.6,83.4,75.9,81.8,75.9z"/></g></g><g id="SvgjsG39421" featureKey="nameFeature-0" transform="matrix(1.2370114365421967,0,0,1.2370114365421967,128.07026222977655,45.91390363783591)" fill="#fff"><path d="M4.66 19.5 q-1.48 -0.76 -2.29 -2.16 t-0.81 -3.26 l0 -8.68 l3.16 0 l0 8.68 q0 1.28 0.55 2.05 t1.32 1.09 t1.53 0.32 q0.74 0 1.51 -0.32 t1.31 -1.09 t0.54 -2.05 l0 -8.68 l3.16 0 l0 8.68 q0 1.86 -0.8 3.26 t-2.28 2.16 t-3.44 0.76 q-1.98 0 -3.46 -0.76 z M27.03 6.08 q1.33 0.7 2.05 1.89 t0.72 2.65 t-0.67 2.62 t-2.01 1.83 t-3.24 0.67 l-2.76 0 l0 4.26 l-3.16 0 l0 -14.62 l5.94 0 q1.8 0 3.13 0.7 z M26.04 12.3 q0.58 -0.7 0.58 -1.68 q0 -0.64 -0.3 -1.21 t-0.89 -0.93 t-1.41 -0.36 l-2.9 0 l0 4.88 l3.22 0 q1.12 0 1.7 -0.7 z M42.099999999999994 20 l-10.6 0 l0 -2.94 l2.28 -1.86 l3.06 -2.46 q1.2 -0.94 1.56 -1.58 t0.36 -1.4 q0 -0.98 -0.64 -1.42 t-1.52 -0.44 q-1.08 0 -1.6 0.79 t-0.74 1.51 l-3.08 -0.76 q0.26 -0.9 0.92 -1.89 t1.81 -1.7 t2.69 -0.71 q1.72 0 2.93 0.67 t1.81 1.73 t0.6 2.22 q0 1.46 -0.86 2.71 t-2.36 2.51 l-0.82 0.66 q-0.36 0.28 -0.88 0.69 t-1.2 0.93 l6.28 0 l0 2.74 z M56.129999999999995 19.18 q-1.85 1.1 -4.03 1.1 q-2.14 0 -3.95 -1.02 t-2.87 -2.76 t-1.06 -3.8 q0 -2.04 1.06 -3.78 t2.87 -2.76 t3.95 -1.02 q2.16 0 4.02 1.09 t2.92 2.91 l-2.94 1.14 q-0.7 -1 -1.77 -1.64 t-2.23 -0.64 q-1.28 0 -2.36 0.65 t-1.71 1.73 t-0.63 2.32 t0.63 2.33 t1.71 1.74 t2.36 0.65 q1.16 0 2.23 -0.65 t1.77 -1.67 l2.94 1.14 q-1.06 1.84 -2.91 2.94 z M61.22 20 l0 -14.62 l6.5 0 q1.56 0 2.76 0.64 t1.86 1.8 t0.66 2.64 q0 1.58 -0.8 2.82 t-2.18 1.82 q1.42 1.8 3.78 4.9 l-3.78 0 q-1.28 -1.6 -3.5 -4.56 l-2.16 0 l0 4.56 l-3.14 0 z M67.72 12.7 q0.82 0 1.48 -0.59 t0.66 -1.65 q0 -0.86 -0.46 -1.6 t-1.68 -0.74 l-3.36 0 l0 4.58 l3.36 0 z M78.94 11.38 l7 0 l0 2.76 l-7 0 l0 3.12 l7.92 0 l0 2.74 l-11.08 0 l0 -14.62 l11.08 0 l0 2.74 l-7.92 0 l0 3.26 z M95.88 4.92 l8.02 15.08 l-3.46 0 l-1.16 -2.24 l-6.82 0 l-1.12 2.24 l-3.48 0 z M97.76 15.059999999999999 l-1.88 -3.82 l-1.86 3.82 l3.74 0 z M109.4 8.12 l0 11.88 l-3.18 0 l0 -11.88 l-4.26 0 l0 -2.74 l11.68 0 l0 2.74 l-4.24 0 z M118.72000000000001 11.38 l7 0 l0 2.76 l-7 0 l0 3.12 l7.92 0 l0 2.74 l-11.08 0 l0 -14.62 l11.08 0 l0 2.74 l-7.92 0 l0 3.26 z M131.31 19.69 q-0.49 0.47 -1.17 0.47 t-1.16 -0.47 t-0.48 -1.13 q0 -0.64 0.48 -1.12 t1.16 -0.48 t1.17 0.48 t0.49 1.12 q0 0.66 -0.49 1.13 z M133.86 5.380000000000001 l6.04 0 q3.26 0 5.34 1.84 q1.12 0.98 1.7 2.37 t0.58 3.09 q0 1.66 -0.6 3.09 t-1.68 2.41 q-1 0.88 -2.37 1.35 t-2.97 0.47 l-6.04 0 l0 -14.62 z M139.9 17.259999999999998 q1.88 0 3.15 -0.98 t1.27 -3.58 t-1.28 -3.58 t-3.14 -0.98 l-2.88 0 l0 9.12 l2.88 0 z M153.36 20 l-3.16 0 l0 -14.62 l3.16 0 l0 6.1 l5.7 -6.1 l3.92 0 l-6.02 6.2 l6.28 8.42 l-3.88 0 l-4.58 -6.22 l-1.42 1.48 l0 4.74 z"/></g><g id="SvgjsG39422" featureKey="uwAHB0-0" transform="matrix(0.5016995785167764,0,0,0.5016995785167764,146.48826679832555,78.25078653711044)" fill="#fff"><path d="M8.34 5.48 q3.14 0 4.88 2.22 l-1.08 0.9 q-0.6 -0.9 -1.6 -1.41 t-2.2 -0.51 q-2.64 0 -4.3 1.74 t-1.7 4.5 q0 2.74 1.67 4.47 t4.33 1.77 q1.14 0 2.32 -0.57 t1.86 -1.63 l1.08 0.82 q-1.88 2.58 -5.26 2.58 q-3.28 -0.02 -5.27 -2.12 t-2.05 -5.32 q0 -3.26 2.05 -5.33 t5.27 -2.11 z M30.464000000000002 12.08 q1.54 0 2.38 -0.69 t0.84 -1.83 t-0.82 -1.82 t-2.44 -0.7 l-2.86 0 l0 5.04 l2.9 0 z M30.064 5.84 q4.9 0 4.94 3.72 q0 3.14 -3.62 3.64 l4.12 6.8 l-1.5 0 l-3.98 -6.72 l-2.46 0 l0 6.72 l-1.32 0 l0 -14.16 l3.82 0 z M56.98800000000001 5.84 l0 1.2 l-7.34 0 l0 5.04 l6.88 0 l0 1.2 l-6.88 0 l0 5.52 l7.66 0 l0 1.2 l-8.98 0 l0 -14.16 l8.66 0 z M72.072 15.04 l6.5 0 l-3.2 -7.76 z M76.11200000000001 5.84 l5.96 14.16 l-1.48 0 l-1.54 -3.76 l-7.5 0 l-1.6 3.76 l-1.38 0 l6.18 -14.16 l1.36 0 z M103.63600000000001 5.84 l0 1.2 l-4.84 0 l0 12.96 l-1.32 0 l0 -12.96 l-4.84 0 l0 -1.2 l11 0 z M117.36000000000003 5.84 l0 14.16 l-1.32 0 l0 -14.16 l1.32 0 z M133.16400000000002 5.84 l8.62 12.4 l0.04 0 l0 -12.4 l1.32 0 l0 14.16 l-1.7 0 l-8.62 -12.4 l-0.04 0 l0 12.4 l-1.32 0 l0 -14.16 l1.7 0 z M163.64800000000002 5.48 q3.2 -0.02 5.1 1.96 l-0.96 1 q-0.6 -0.74 -1.77 -1.25 t-2.37 -0.51 q-2.66 0 -4.32 1.76 t-1.68 4.48 q0 2.7 1.64 4.44 t4.38 1.8 q2.6 0 3.94 -0.84 l0 -4.76 l-3.4 0 l0 -1.2 l4.72 0 l0 6.72 q-2.3 1.28 -5.28 1.28 q-3.2 0 -5.23 -2.09 t-2.09 -5.35 q0.02 -3.28 2.06 -5.34 t5.26 -2.1 z M207.75600000000003 5.84 l0 1.2 l-4.84 0 l0 12.96 l-1.32 0 l0 -12.96 l-4.84 0 l0 -1.2 l11 0 z M221.48000000000002 5.84 l0 6.24 l7.92 0 l0 -6.24 l1.32 0 l0 14.16 l-1.32 0 l0 -6.72 l-7.92 0 l0 6.72 l-1.32 0 l0 -14.16 l1.32 0 z M246.144 5.84 l0 14.16 l-1.32 0 l0 -14.16 l1.32 0 z M261.948 5.84 l8.62 12.4 l0.04 0 l0 -12.4 l1.32 0 l0 14.16 l-1.7 0 l-8.62 -12.4 l-0.04 0 l0 12.4 l-1.32 0 l0 -14.16 l1.7 0 z M292.43199999999996 5.48 q3.2 -0.02 5.1 1.96 l-0.96 1 q-0.6 -0.74 -1.77 -1.25 t-2.37 -0.51 q-2.66 0 -4.32 1.76 t-1.68 4.48 q0 2.7 1.64 4.44 t4.38 1.8 q2.6 0 3.94 -0.84 l0 -4.76 l-3.4 0 l0 -1.2 l4.72 0 l0 6.72 q-2.3 1.28 -5.28 1.28 q-3.2 0 -5.23 -2.09 t-2.09 -5.35 q0.02 -3.28 2.06 -5.34 t5.26 -2.1 z M315.856 5.48 q2.46 0 3.86 1.78 l-1.14 0.82 q-1.04 -1.4 -2.76 -1.4 q-1.4 0 -2.27 0.72 t-0.91 1.96 q0 1.08 0.66 1.75 t2.3 1.13 q2.16 0.64 2.88 1.13 t1.09 1.21 t0.37 1.8 q0 1.72 -1.23 2.83 t-3.17 1.15 q-3.06 0 -4.6 -2.14 l1.26 -0.84 q1.06 1.76 3.24 1.78 q1.42 0 2.3 -0.79 t0.88 -1.99 q0 -0.7 -0.25 -1.15 t-0.76 -0.78 t-1.3 -0.6 t-1.85 -0.63 q-1.6 -0.52 -2.37 -1.46 t-0.77 -2.4 q0 -1.72 1.29 -2.8 t3.25 -1.08 z"/></g>
			</g>
		</svg>
	